<svg width="104" height="30" viewBox="0 0 104 30" fill="none" xmlns="http://www.w3.org/2000/svg">
<g clip-path="url(#clip0_1014_45)">
<path d="M7.286 24L13.63 14.25L7.338 4.63H11.394L15.606 11.078L19.792 4.63H23.848L17.582 14.25L23.9 24H19.844L15.606 17.448L11.342 24H7.286Z" fill="#039AFF"/>
<path d="M32.5875 24.312C31.1835 24.312 29.9181 23.9913 28.7915 23.35C27.6821 22.6913 26.8068 21.8073 26.1655 20.698C25.5241 19.5713 25.2035 18.306 25.2035 16.902C25.2035 15.498 25.5241 14.2413 26.1655 13.132C26.8068 12.0227 27.6821 11.1473 28.7915 10.506C29.9181 9.86467 31.1835 9.544 32.5875 9.544C33.5928 9.544 34.5288 9.71733 35.3955 10.064C36.2621 10.4107 37.0075 10.9047 37.6315 11.546C38.2555 12.17 38.7148 12.898 39.0095 13.73L36.0195 15.03C35.7421 14.3193 35.3001 13.7473 34.6935 13.314C34.1041 12.8807 33.4021 12.664 32.5875 12.664C31.8421 12.664 31.1748 12.846 30.5855 13.21C30.0135 13.574 29.5628 14.0767 29.2335 14.718C28.9041 15.3593 28.7395 16.096 28.7395 16.928C28.7395 17.7427 28.9041 18.4793 29.2335 19.138C29.5628 19.7793 30.0135 20.282 30.5855 20.646C31.1748 21.01 31.8421 21.192 32.5875 21.192C33.4021 21.192 34.1041 20.984 34.6935 20.568C35.3001 20.1347 35.7421 19.5453 36.0195 18.8L39.0095 20.152C38.7321 20.9493 38.2815 21.6687 37.6575 22.31C37.0335 22.934 36.2881 23.428 35.4215 23.792C34.5548 24.1387 33.6101 24.312 32.5875 24.312ZM41.5938 24V4.396H44.9998V11.26C45.3985 10.688 45.9271 10.2633 46.5858 9.986C47.2445 9.69133 47.9811 9.544 48.7958 9.544C49.8358 9.544 50.7545 9.76933 51.5518 10.22C52.3665 10.6707 52.9991 11.3033 53.4498 12.118C53.9005 12.9153 54.1258 13.8427 54.1258 14.9V24H50.7198V15.706C50.7198 14.77 50.4511 14.0333 49.9138 13.496C49.3765 12.9413 48.6918 12.664 47.8598 12.664C47.0278 12.664 46.3431 12.9413 45.8058 13.496C45.2685 14.0507 44.9998 14.7873 44.9998 15.706V24H41.5938ZM63.9219 24.312C62.5353 24.312 61.2699 23.9913 60.1259 23.35C58.9993 22.7087 58.0979 21.8333 57.4219 20.724C56.7633 19.6147 56.4339 18.3493 56.4339 16.928C56.4339 15.5067 56.7633 14.2413 57.4219 13.132C58.0979 12.0227 58.9993 11.1473 60.1259 10.506C61.2526 9.86467 62.5179 9.544 63.9219 9.544C65.3086 9.544 66.5653 9.86467 67.6919 10.506C68.8186 11.1473 69.7113 12.0227 70.3699 13.132C71.0459 14.2413 71.3839 15.5067 71.3839 16.928C71.3839 18.3493 71.0459 19.6233 70.3699 20.75C69.6939 21.8593 68.7926 22.7347 67.6659 23.376C66.5393 24 65.2913 24.312 63.9219 24.312ZM63.9219 21.192C64.6846 21.192 65.3519 21.01 65.9239 20.646C66.5133 20.282 66.9726 19.7793 67.3019 19.138C67.6486 18.4793 67.8219 17.7427 67.8219 16.928C67.8219 16.1133 67.6486 15.3853 67.3019 14.744C66.9726 14.1027 66.5133 13.6 65.9239 13.236C65.3519 12.8547 64.6846 12.664 63.9219 12.664C63.1593 12.664 62.4746 12.8547 61.8679 13.236C61.2786 13.6 60.8106 14.1027 60.4639 14.744C60.1346 15.3853 59.9699 16.1133 59.9699 16.928C59.9699 17.7427 60.1346 18.4793 60.4639 19.138C60.8106 19.7793 61.2786 20.282 61.8679 20.646C62.4746 21.01 63.1593 21.192 63.9219 21.192ZM80.8829 24.312C79.4962 24.312 78.2309 23.9913 77.0869 23.35C75.9602 22.7087 75.0589 21.8333 74.3829 20.724C73.7242 19.6147 73.3949 18.3493 73.3949 16.928C73.3949 15.5067 73.7242 14.2413 74.3829 13.132C75.0589 12.0227 75.9602 11.1473 77.0869 10.506C78.2135 9.86467 79.4789 9.544 80.8829 9.544C82.2695 9.544 83.5262 9.86467 84.6529 10.506C85.7795 11.1473 86.6722 12.0227 87.3309 13.132C88.0069 14.2413 88.3449 15.5067 88.3449 16.928C88.3449 18.3493 88.0069 19.6233 87.3309 20.75C86.6549 21.8593 85.7535 22.7347 84.6269 23.376C83.5002 24 82.2522 24.312 80.8829 24.312ZM80.8829 21.192C81.6455 21.192 82.3129 21.01 82.8849 20.646C83.4742 20.282 83.9335 19.7793 84.2629 19.138C84.6095 18.4793 84.7829 17.7427 84.7829 16.928C84.7829 16.1133 84.6095 15.3853 84.2629 14.744C83.9335 14.1027 83.4742 13.6 82.8849 13.236C82.3129 12.8547 81.6455 12.664 80.8829 12.664C80.1202 12.664 79.4355 12.8547 78.8289 13.236C78.2395 13.6 77.7715 14.1027 77.4249 14.744C77.0955 15.3853 76.9309 16.1133 76.9309 16.928C76.9309 17.7427 77.0955 18.4793 77.4249 19.138C77.7715 19.7793 78.2395 20.282 78.8289 20.646C79.4355 21.01 80.1202 21.192 80.8829 21.192ZM90.9278 24V4.63H94.3338V24H90.9278ZM99.0906 24V20.36H102.523V24H99.0906Z" fill="#1D2332"/>
</g>
<defs>
<clipPath id="clip0_1014_45">
<rect width="104" height="30" fill="white"/>
</clipPath>
</defs>
</svg>
